<svg width="16" height="16" viewBox="0 0 16 16" fill="none" xmlns="http://www.w3.org/2000/svg">
<rect width="16" height="16" rx="4" fill="black"/>
<path d="M7.37992 11.5H1L4.18996 4.04911L7.37992 11.5ZM2.08826 10.6041H6.08826L4.18996 6.00004L2.08826 10.6041Z" fill="white"/>
<path d="M15.0883 11.5H8.58826V4.00009L11.5883 4.00002C12.1523 4.00002 12.7317 3.994 13.0883 4.19499C13.4384 4.3895 13.8937 4.66289 14.0883 5.00004C14.2828 5.33719 14.4583 6.00393 14.4583 6.41241C14.4583 6.91813 14.3995 7.59801 14.0883 8C13.777 8.3955 13.5883 8.5 13.0883 8.89932L15.0883 11.5ZM9.59961 4.55484L12.4686 8.25052C12.903 8.15975 13.0392 7.94255 13.3245 7.59892C13.6098 7.25528 13.7524 6.85978 13.7524 6.41241C13.7524 6.0558 13.6649 5.73162 13.4898 5.43986C13.3148 5.14809 13.0684 4.9244 12.7507 4.7688C12.4654 4.62616 12.0926 4.55484 11.6322 4.55484H9.59961ZM9.34675 5.43986V8.2797H11.5883L9.34675 5.43986ZM9.34675 10.6041H13.3245L12.0125 8.89932H11.0883H9.34675V10.6041Z" fill="white"/>
</svg>
