<svg width="32" height="32" viewBox="0 0 32 32" fill="none" xmlns="http://www.w3.org/2000/svg">
<rect width="32" height="32" rx="4" fill="black"/>
<path d="M4.622 21.014C4.60333 20.8647 4.60333 20.7153 4.622 20.566C4.88333 20.538 5.09333 20.5053 5.252 20.468C5.41067 20.4307 5.546 20.3653 5.658 20.272C5.77 20.1693 5.87733 20.02 5.98 19.824C6.08267 19.6187 6.204 19.334 6.344 18.97L9.368 11.214C9.47067 11.1767 9.592 11.1487 9.732 11.13C9.88133 11.1113 10.0073 11.102 10.11 11.102L13.12 19.096C13.2507 19.432 13.358 19.698 13.442 19.894C13.526 20.0807 13.6193 20.216 13.722 20.3C13.8247 20.384 13.9553 20.4447 14.114 20.482C14.2727 20.51 14.492 20.538 14.772 20.566C14.7907 20.7153 14.7907 20.8647 14.772 21.014C14.4453 21.014 14.1093 21.0093 13.764 21C13.4187 20.9907 13.0733 20.986 12.728 20.986C12.3733 20.986 12.014 20.9907 11.65 21C11.2953 21.0093 10.9407 21.014 10.586 21.014C10.558 20.874 10.558 20.7247 10.586 20.566C11.0433 20.5193 11.3607 20.4773 11.538 20.44C11.7153 20.3933 11.804 20.2813 11.804 20.104C11.804 20.0293 11.79 19.9453 11.762 19.852C11.734 19.7587 11.6967 19.642 11.65 19.502L10.852 17.346H7.702L7.002 19.278C6.93667 19.4553 6.88533 19.6047 6.848 19.726C6.82 19.838 6.806 19.9407 6.806 20.034C6.806 20.2393 6.89933 20.37 7.086 20.426C7.282 20.4727 7.59933 20.5193 8.038 20.566C8.05667 20.7247 8.05667 20.874 8.038 21.014C7.72067 21.014 7.408 21.0093 7.1 21C6.792 20.9907 6.47933 20.986 6.162 20.986C5.90067 20.986 5.64867 20.9907 5.406 21C5.16333 21.0093 4.902 21.014 4.622 21.014ZM7.912 16.758H10.642L9.27 13.034L7.912 16.758ZM18.226 16.576L17.862 16.534V19.264C17.862 19.5533 17.8713 19.782 17.89 19.95C17.9086 20.118 17.9553 20.2393 18.03 20.314C18.114 20.3887 18.2446 20.4447 18.422 20.482C18.6086 20.51 18.8653 20.538 19.192 20.566C19.22 20.7153 19.22 20.8647 19.192 21.014C19.0053 21.014 18.7813 21.0093 18.52 21C18.2586 21 17.9973 21 17.736 21C17.4746 20.9907 17.2553 20.986 17.078 20.986C16.91 20.986 16.6906 20.9907 16.42 21C16.1493 21 15.8786 21 15.608 21C15.3373 21.0093 15.1086 21.014 14.922 21.014C14.894 20.874 14.894 20.7247 14.922 20.566C15.37 20.5287 15.692 20.4913 15.888 20.454C16.084 20.4073 16.2053 20.314 16.252 20.174C16.2986 20.0247 16.322 19.782 16.322 19.446V12.922C16.322 12.5393 16.294 12.264 16.238 12.096C16.1913 11.928 16.07 11.816 15.874 11.76C15.678 11.704 15.3606 11.662 14.922 11.634C14.894 11.494 14.894 11.3447 14.922 11.186C15.0993 11.186 15.328 11.1907 15.608 11.2C15.8973 11.2 16.1773 11.2047 16.448 11.214C16.728 11.214 16.9333 11.214 17.064 11.214C17.232 11.214 17.4466 11.214 17.708 11.214C17.9786 11.2047 18.2446 11.1953 18.506 11.186C18.7766 11.1767 18.9866 11.172 19.136 11.172C19.724 11.172 20.27 11.2513 20.774 11.41C21.2873 11.5687 21.698 11.83 22.006 12.194C22.3233 12.5487 22.482 13.0293 22.482 13.636C22.482 14.2333 22.3 14.7653 21.936 15.232C21.5813 15.6987 21.0166 16.0487 20.242 16.282V16.324C20.382 16.436 20.5406 16.6227 20.718 16.884L22.188 19.012C22.4306 19.3573 22.6313 19.628 22.79 19.824C22.958 20.02 23.1166 20.1693 23.266 20.272C23.4153 20.3653 23.588 20.4307 23.784 20.468C23.98 20.5053 24.2273 20.538 24.526 20.566C24.554 20.7153 24.554 20.8647 24.526 21.014C24.3486 21.014 24.1293 21.0093 23.868 21C23.6066 21 23.3546 21 23.112 21C22.8693 20.9907 22.6733 20.986 22.524 20.986C22.3746 20.986 22.244 20.9907 22.132 21C22.02 21 21.8893 21 21.74 21L19.15 17.178C18.9913 16.9353 18.8513 16.7813 18.73 16.716C18.6086 16.6413 18.4406 16.5947 18.226 16.576ZM17.862 15.96C17.9833 15.9787 18.0906 15.9927 18.184 16.002C18.2773 16.0113 18.366 16.016 18.45 16.016C19.178 16.016 19.752 15.8293 20.172 15.456C20.6013 15.0827 20.816 14.532 20.816 13.804C20.816 13.1413 20.6293 12.6327 20.256 12.278C19.892 11.9233 19.3506 11.746 18.632 11.746C18.5386 11.746 18.422 11.7507 18.282 11.76C18.1513 11.7693 18.0113 11.7833 17.862 11.802V15.96ZM25.259 20.132C25.259 19.8427 25.357 19.6 25.553 19.404C25.749 19.1987 25.987 19.096 26.267 19.096C26.5843 19.096 26.8363 19.2033 27.023 19.418C27.219 19.6233 27.317 19.8613 27.317 20.132C27.317 20.412 27.219 20.6547 27.023 20.86C26.8363 21.0653 26.5843 21.168 26.267 21.168C25.987 21.168 25.749 21.07 25.553 20.874C25.357 20.6687 25.259 20.4213 25.259 20.132Z" fill="white"/>
</svg>
