<svg width="202" height="90" viewBox="0 0 202 90" fill="none" xmlns="http://www.w3.org/2000/svg">
<path d="M0.652 88.124C0.486667 86.8013 0.486667 85.4787 0.652 84.156C2.96667 83.908 4.82667 83.6187 6.232 83.288C7.63733 82.9573 8.836 82.3787 9.828 81.552C10.82 80.6427 11.7707 79.32 12.68 77.584C13.5893 75.7653 14.664 73.244 15.904 70.02L42.688 1.32399C43.5973 0.99333 44.672 0.745331 45.912 0.579995C47.2347 0.414663 48.3507 0.331998 49.26 0.331998L75.92 71.136C77.0773 74.112 78.028 76.468 78.772 78.204C79.516 79.8573 80.3427 81.056 81.252 81.8C82.1613 82.544 83.3187 83.0813 84.724 83.412C86.1293 83.66 88.072 83.908 90.552 84.156C90.7173 85.4787 90.7173 86.8013 90.552 88.124C87.6587 88.124 84.6827 88.0827 81.624 88C78.5653 87.9173 75.5067 87.876 72.448 87.876C69.3067 87.876 66.124 87.9173 62.9 88C59.7587 88.0827 56.6173 88.124 53.476 88.124C53.228 86.884 53.228 85.5613 53.476 84.156C57.5267 83.7427 60.3373 83.3707 61.908 83.04C63.4787 82.6267 64.264 81.6347 64.264 80.064C64.264 79.4027 64.14 78.6587 63.892 77.832C63.644 77.0053 63.3133 75.972 62.9 74.732L55.832 55.636H27.932L21.732 72.748C21.1533 74.3187 20.6987 75.6413 20.368 76.716C20.12 77.708 19.996 78.6173 19.996 79.444C19.996 81.2627 20.8227 82.42 22.476 82.916C24.212 83.3293 27.0227 83.7427 30.908 84.156C31.0733 85.5613 31.0733 86.884 30.908 88.124C28.0973 88.124 25.328 88.0827 22.6 88C19.872 87.9173 17.1027 87.876 14.292 87.876C11.9773 87.876 9.74533 87.9173 7.596 88C5.44667 88.0827 3.132 88.124 0.652 88.124ZM29.792 50.428H53.972L41.82 17.444L29.792 50.428ZM121.144 48.816L117.92 48.444V72.624C117.92 75.1867 118.003 77.212 118.168 78.7C118.333 80.188 118.747 81.2627 119.408 81.924C120.152 82.5853 121.309 83.0813 122.88 83.412C124.533 83.66 126.807 83.908 129.7 84.156C129.948 85.4787 129.948 86.8013 129.7 88.124C128.047 88.124 126.063 88.0827 123.748 88C121.433 88 119.119 88 116.804 88C114.489 87.9173 112.547 87.876 110.976 87.876C109.488 87.876 107.545 87.9173 105.148 88C102.751 88 100.353 88 97.9562 88C95.5588 88.0827 93.5335 88.124 91.8802 88.124C91.6322 86.884 91.6322 85.5613 91.8802 84.156C95.8482 83.8253 98.7002 83.4947 100.436 83.164C102.172 82.7507 103.247 81.924 103.66 80.684C104.073 79.3613 104.28 77.212 104.28 74.236V16.452C104.28 13.0627 104.032 10.624 103.536 9.136C103.123 7.64799 102.048 6.656 100.312 6.16C98.5762 5.664 95.7655 5.292 91.8802 5.044C91.6322 3.804 91.6322 2.48133 91.8802 1.076C93.4508 1.076 95.4762 1.11733 97.9562 1.19999C100.519 1.19999 102.999 1.24133 105.396 1.32399C107.876 1.32399 109.695 1.32399 110.852 1.32399C112.34 1.32399 114.241 1.32399 116.556 1.32399C118.953 1.24133 121.309 1.15866 123.624 1.076C126.021 0.99333 127.881 0.951997 129.204 0.951997C134.412 0.951997 139.248 1.65466 143.712 3.05999C148.259 4.46533 151.896 6.78 154.624 10.004C157.435 13.1453 158.84 17.4027 158.84 22.776C158.84 28.0667 157.228 32.7787 154.004 36.912C150.863 41.0453 145.861 44.1453 139 46.212V46.584C140.24 47.576 141.645 49.2293 143.216 51.544L156.236 70.392C158.385 73.4507 160.163 75.848 161.568 77.584C163.056 79.32 164.461 80.6427 165.784 81.552C167.107 82.3787 168.636 82.9573 170.372 83.288C172.108 83.6187 174.299 83.908 176.944 84.156C177.192 85.4787 177.192 86.8013 176.944 88.124C175.373 88.124 173.431 88.0827 171.116 88C168.801 88 166.569 88 164.42 88C162.271 87.9173 160.535 87.876 159.212 87.876C157.889 87.876 156.732 87.9173 155.74 88C154.748 88 153.591 88 152.268 88L129.328 54.148C127.923 51.9987 126.683 50.6347 125.608 50.056C124.533 49.3947 123.045 48.9813 121.144 48.816ZM117.92 43.36C118.995 43.5253 119.945 43.6493 120.772 43.732C121.599 43.8147 122.384 43.856 123.128 43.856C129.576 43.856 134.66 42.2027 138.38 38.896C142.183 35.5893 144.084 30.712 144.084 24.264C144.084 18.3947 142.431 13.8893 139.124 10.748C135.9 7.60666 131.105 6.036 124.74 6.036C123.913 6.036 122.88 6.07733 121.64 6.16C120.483 6.24266 119.243 6.36666 117.92 6.532V43.36ZM183.437 80.312C183.437 77.7493 184.305 75.6 186.041 73.864C187.777 72.0453 189.885 71.136 192.365 71.136C195.175 71.136 197.407 72.0867 199.061 73.988C200.797 75.8067 201.665 77.9147 201.665 80.312C201.665 82.792 200.797 84.9413 199.061 86.76C197.407 88.5787 195.175 89.488 192.365 89.488C189.885 89.488 187.777 88.62 186.041 86.884C184.305 85.0653 183.437 82.8747 183.437 80.312Z" fill="white"/>
</svg>
