<svg width="32" height="32" viewBox="0 0 32 32" fill="none" xmlns="http://www.w3.org/2000/svg">
<rect width="32" height="32" rx="4" fill="black"/>
<path d="M14.8685 22H4L9.43425 10.0786L14.8685 22ZM5.8539 20.5665H12.6681L9.43425 13.2L5.8539 20.5665Z" fill="white"/>
<path d="M28 22H16.9269V10.0001L22.0376 10C22.9985 10 23.9854 9.9904 24.5929 10.312C25.1893 10.6232 25.9651 11.0606 26.2965 11.6001C26.6278 12.1395 26.9268 13.2063 26.9268 13.8598C26.9268 14.669 26.8266 15.7568 26.2965 16.4C25.7663 17.0328 25.4447 17.2 24.5929 17.8389L28 22ZM18.6498 10.8877L23.5373 16.8008C24.2774 16.6556 24.5093 16.308 24.9953 15.7582C25.4813 15.2084 25.7243 14.5756 25.7243 13.8598C25.7243 13.2893 25.5752 12.7706 25.277 12.3038C24.9788 11.8369 24.559 11.479 24.0178 11.2301C23.5318 11.0018 22.8967 10.8877 22.1125 10.8877H18.6498ZM18.2191 12.3038V16.8475H22.0376L18.2191 12.3038ZM18.2191 20.5665H24.9953L22.7604 17.8389H21.1858H18.2191V20.5665Z" fill="white"/>
</svg>
