<svg width="169" height="89" viewBox="0 0 169 89" fill="none" xmlns="http://www.w3.org/2000/svg">
<path d="M81.344 88.164H0L40.672 0L81.344 88.164ZM7.192 83.576H74.152L40.672 10.912L7.192 83.576Z" fill="white"/>
<path d="M168.173 88.164H101.833V1.86H135.437C142.629 1.86 148.498 3.14133 153.045 5.704C157.509 8.184 160.981 11.5733 163.461 15.872C165.941 20.1707 167.181 24.924 167.181 30.132C167.181 36.58 165.197 42.3667 161.229 47.492C157.261 52.5347 152.26 55.8827 146.225 57.536L168.173 88.164ZM109.645 6.448L143.373 53.568C148.912 52.4107 153.5 49.6413 157.137 45.26C160.774 40.8787 162.593 35.836 162.593 30.132C162.593 25.5853 161.477 21.452 159.245 17.732C157.013 14.012 153.872 11.16 149.821 9.176C146.184 7.35733 141.43 6.448 135.561 6.448H109.645ZM106.421 9.424V53.94H138.289L106.421 9.424ZM106.421 83.576H159.493L141.389 58.404L137.545 58.528H106.421V83.576Z" fill="white"/>
</svg>
