<svg width="169" height="89" viewBox="0 0 169 89" fill="none" xmlns="http://www.w3.org/2000/svg">
<path d="M81.552 88.9999H0.208008L40.88 0.835938L81.552 88.9999ZM7.40001 84.4119H74.36L40.88 11.7479L7.40001 84.4119Z" fill="white"/>
<path d="M168.381 88.9999H102.041V2.69594H135.645C142.837 2.69594 148.706 3.97727 153.253 6.53994C157.717 9.01994 161.189 12.4093 163.669 16.7079C166.149 21.0066 167.389 25.7599 167.389 30.9679C167.389 37.4159 165.405 43.2026 161.437 48.3279C157.469 53.3706 152.468 56.7186 146.433 58.3719L168.381 88.9999ZM109.853 7.28394L143.581 54.4039C149.12 53.2466 153.708 50.4773 157.345 46.0959C160.982 41.7146 162.801 36.6719 162.801 30.9679C162.801 26.4213 161.685 22.2879 159.453 18.5679C157.221 14.8479 154.08 11.9959 150.029 10.0119C146.392 8.19327 141.638 7.28394 135.769 7.28394H109.853ZM106.629 10.2599V54.7759H138.497L106.629 10.2599ZM106.629 84.4119H159.701L141.597 59.2399L137.753 59.3639H106.629V84.4119Z" fill="white"/>
</svg>
